<svg width="320" height="27" viewBox="0 0 320 27" fill="none" xmlns="http://www.w3.org/2000/svg">
<rect x="50" width="221" height="25" fill="#D15F67"/>
<rect x="52.5" y="2.5" width="220" height="24" stroke="black"/>
<line x1="57.5" y1="2" x2="57.5" y2="9" stroke="black"/>
<line x1="73.5" y1="2" x2="73.5" y2="9" stroke="black"/>
<line x1="97.5" y1="2" x2="97.5" y2="9" stroke="black"/>
<line x1="121.5" y1="2" x2="121.5" y2="9" stroke="black"/>
<line x1="145.5" y1="2" x2="145.5" y2="9" stroke="black"/>
<line x1="169.5" y1="2" x2="169.5" y2="9" stroke="black"/>
<line x1="193.5" y1="2" x2="193.5" y2="9" stroke="black"/>
<line x1="217.5" y1="2" x2="217.5" y2="9" stroke="black"/>
<line x1="241.5" y1="2" x2="241.5" y2="9" stroke="black"/>
<line x1="65.5" y1="2" x2="65.5" y2="14" stroke="black"/>
<line x1="89.5" y1="2" x2="89.5" y2="14" stroke="black"/>
<line x1="113.5" y1="2" x2="113.5" y2="14" stroke="black"/>
<line x1="137.5" y1="2" x2="137.5" y2="14" stroke="black"/>
<line x1="161.5" y1="2" x2="161.5" y2="14" stroke="black"/>
<line x1="185.5" y1="2" x2="185.5" y2="14" stroke="black"/>
<line x1="209.5" y1="2" x2="209.5" y2="14" stroke="black"/>
<line x1="233.5" y1="2" x2="233.5" y2="14" stroke="black"/>
<line x1="81.5" y1="2" x2="81.5" y2="9" stroke="black"/>
<line x1="105.5" y1="2" x2="105.5" y2="9" stroke="black"/>
<line x1="129.5" y1="2" x2="129.5" y2="9" stroke="black"/>
<line x1="153.5" y1="2" x2="153.5" y2="9" stroke="black"/>
<line x1="177.5" y1="2" x2="177.5" y2="9" stroke="black"/>
<line x1="201.5" y1="2" x2="201.5" y2="9" stroke="black"/>
<line x1="225.5" y1="2" x2="225.5" y2="9" stroke="black"/>
<line x1="249.5" y1="2" x2="249.5" y2="9" stroke="black"/>
<line x1="261.5" y1="2" x2="261.5" y2="9" stroke="black"/>
<line x1="61.5" y1="2" x2="61.5" y2="9" stroke="black"/>
<line x1="77.5" y1="2" x2="77.5" y2="14" stroke="black"/>
<line x1="101.5" y1="2" x2="101.5" y2="14" stroke="black"/>
<line x1="125.5" y1="2" x2="125.5" y2="14" stroke="black"/>
<line x1="149.5" y1="2" x2="149.5" y2="14" stroke="black"/>
<line x1="173.5" y1="2" x2="173.5" y2="14" stroke="black"/>
<line x1="197.5" y1="2" x2="197.5" y2="14" stroke="black"/>
<line x1="221.5" y1="2" x2="221.5" y2="14" stroke="black"/>
<line x1="245.5" y1="2" x2="245.5" y2="14" stroke="black"/>
<line x1="257.5" y1="2" x2="257.5" y2="14" stroke="black"/>
<line x1="69.5" y1="2" x2="69.5" y2="9" stroke="black"/>
<line x1="93.5" y1="2" x2="93.5" y2="9" stroke="black"/>
<line x1="117.5" y1="2" x2="117.5" y2="9" stroke="black"/>
<line x1="141.5" y1="2" x2="141.5" y2="9" stroke="black"/>
<line x1="165.5" y1="2" x2="165.5" y2="9" stroke="black"/>
<line x1="189.5" y1="2" x2="189.5" y2="9" stroke="black"/>
<line x1="213.5" y1="2" x2="213.5" y2="9" stroke="black"/>
<line x1="237.5" y1="2" x2="237.5" y2="9" stroke="black"/>
<line x1="85.5" y1="2" x2="85.5" y2="9" stroke="black"/>
<line x1="109.5" y1="2" x2="109.5" y2="9" stroke="black"/>
<line x1="133.5" y1="2" x2="133.5" y2="9" stroke="black"/>
<line x1="157.5" y1="2" x2="157.5" y2="9" stroke="black"/>
<line x1="181.5" y1="2" x2="181.5" y2="9" stroke="black"/>
<line x1="205.5" y1="2" x2="205.5" y2="9" stroke="black"/>
<line x1="229.5" y1="2" x2="229.5" y2="9" stroke="black"/>
<line x1="253.5" y1="2" x2="253.5" y2="9" stroke="black"/>
<line x1="265.5" y1="2" x2="265.5" y2="9" stroke="black"/>
</svg>
